# xmcd
# Track frame offsets:
# 150
# 12081
# 27828
# 35354
# 46648
# 59709
# 69495
# 77610
# 85613
# 95080
# 111330
# 125169
# 127297
# 136817
# 147670
# 158916
# 167018
# 177388
# 190375
# 202472
# 215532
# 227419
# 239159
# 252978
# 266082
# 280950
#
# Disc length: 3898 seconds
# Revision: 2
# Processed by: cddbd v1.5.2PL0 Copyright (c) Steve Scherf et al.
# Submitted via: VisiTrax 2.11.3.279 - For more info visit www.synapsa.com
#
DISCID=900f381a
DTITLE=Johnny Cash - I Walk The Line And Little Fauss And Big Halsy
DYEAR=1970
DGENRE=Country
TTITLE0=Johnny Cash - Flesh And Blood
TTITLE1=Johnny Cash - I Walk The Line [Full Version]
TTITLE2=Johnny Cash - Hungry
TTITLE3=Johnny Cash - This Town
TTITLE4=Johnny Cash - This Side Of The Law
TTITLE5=Johnny Cash - Flesh And Blood [Instrumental]
TTITLE6=Johnny Cash - 'Cause I Love You
TTITLE7=Johnny Cash - 'Cause I Love You (Instrumental)
TTITLE8=Johnny Cash - The World's Gonna Fall On You
TTITLE9=Johnny Cash - Face Of Despair
TTITLE10=Johnny Cash - Standing On The Promises/Amazing Grace
TTITLE11=Johnny Cash - 'Cause I Love You [Instrumental] [Bonus Track]
TTITLE12=Johnny Cash - Amazing Grace [Bonus Track]
TTITLE13=Johnny Cash - Rollin' Free
TTITLE14=Johnny Cash - Ballad Of Little Fauss And Big Halsy
TTITLE15=Johnny Cash - Ballad Of Little Fauss And Big Halsy [Instrumental]
TTITLE16=Johnny Cash - 706 Union
TTITLE17=Johnny Cash - Little Man
TTITLE18=Johnny Cash - Little Man [Instrumental]
TTITLE19=Johnny Cash - Wanted Man
TTITLE20=Johnny Cash - Rollin' Free (Instrumental)
TTITLE21=Carl Perkins - True Love Is Greater Than Friendship
TTITLE22=Johnny Cash - Movin'
TTITLE23=Johnny Cash - Little Man [Instrumental] [Bonus Track]
TTITLE24=Johnny Cash - True Love Is Greater Than Friendship [Instrumental] [Bon
TTITLE24=us Track]
TTITLE25=Johnny Cash - Movin'  [Bonus Track]
EXTD=(c)1999 Bear Family Records Germany
EXTT0=
EXTT1=
EXTT2=
EXTT3=
EXTT4=
EXTT5=
EXTT6=
EXTT7=
EXTT8=
EXTT9=
EXTT10=
EXTT11=
EXTT12=
EXTT13=
EXTT14=
EXTT15=
EXTT16=
EXTT17=
EXTT18=
EXTT19=
EXTT20=
EXTT21=
EXTT22=
EXTT23=
EXTT24=
EXTT25=
PLAYORDER=
